<svg width="1440" height="1024" viewBox="0 0 1440 1024" fill="none" xmlns="http://www.w3.org/2000/svg">
<path d="M1561.78 653.601C1561.78 1128.23 1114.26 1513 562.217 1513C10.1713 1513 -405.689 680.601 269.856 680.601C1020.13 656.245 687.954 -317 1240 -317C1792.05 -317 1561.78 178.969 1561.78 653.601Z" fill="url(#paint0_angular_271_524)" fill-opacity="0.71"/>
<circle cx="1360" cy="586" r="350" fill="url(#paint1_angular_271_524)"/>
<circle cx="974" cy="522" r="125" fill="#05299E"/>
<g clip-path="url(#clip0_271_524)">
<path d="M691.398 745.435C691.406 744.272 691.178 743.12 690.727 742.05C690.277 740.98 689.613 740.016 688.779 739.218C687.945 738.421 686.958 737.806 685.879 737.412C684.8 737.019 683.653 736.855 682.509 736.932C681.365 737.009 680.249 737.324 679.23 737.858C678.212 738.392 677.313 739.133 676.589 740.035C675.866 740.938 675.333 741.982 675.025 743.102C674.717 744.223 674.64 745.396 674.799 746.548L650.837 778.388C649.814 780.463 649.418 782.798 649.697 785.101C649.977 787.403 650.919 789.571 652.407 791.332L654.287 793.557L662.911 791.807L672.686 783.055L671.536 773.137L683.61 753.884L683.595 753.87C685.708 753.734 687.691 752.786 689.141 751.219C690.59 749.652 691.397 747.584 691.398 745.435Z" fill="#F0A7A0"/>
<path d="M525.695 901.098L521.784 886.358L575.954 864.036L581.726 885.791L525.695 901.098Z" fill="#F0A7A0"/>
<path d="M512.611 908.704L500 861.176L500.592 861.014C505.428 859.693 510.582 860.375 514.921 862.91C519.261 865.445 522.43 869.626 523.733 874.532L523.733 874.533L531.435 903.562L512.611 908.704Z" fill="#2F2E41"/>
<path d="M600.312 898.743L588.146 889.765L616.484 837.874L634.441 851.124L600.312 898.743Z" fill="#F0A7A0"/>
<path d="M594.839 913L555.608 884.051L555.969 883.547C558.914 879.438 563.347 876.684 568.293 875.891C573.239 875.099 578.293 876.332 582.343 879.32L582.344 879.321L606.304 897.002L594.839 913Z" fill="#2F2E41"/>
<path d="M703.734 826.229L673.117 796.049C670.445 793.416 666.926 791.849 663.207 791.638C659.487 791.427 655.818 792.586 652.873 794.902L595.064 860.068L600.239 868.236L655.436 830.313L692.81 879.904L728.458 861.818L703.734 826.229Z" fill="#2F2E41"/>
<path d="M690.51 832.647L668.086 830.896L651.846 826.902C650.929 825.45 649.597 824.316 648.027 823.654C646.458 822.992 644.726 822.832 643.065 823.195C641.403 823.559 639.891 824.429 638.73 825.689C637.569 826.949 636.816 828.538 636.57 830.245C636.324 831.952 636.598 833.694 637.354 835.238C638.111 836.782 639.315 838.055 640.804 838.886C642.294 839.717 643.998 840.067 645.689 839.888C647.379 839.709 648.976 839.011 650.264 837.886L650.262 837.898L660.036 841.981L702.009 856.567L707.184 852.483L690.51 832.647Z" fill="#F0A7A0"/>
<path d="M744.557 895.657L731.908 903.825H716.958L647.387 877.571L545.617 896.24L542.742 874.07L635.888 832.647L717.534 860.068L744.557 895.657Z" fill="#2F2E41"/>
<path d="M717.534 753.884C729.918 753.884 739.958 743.697 739.958 731.131C739.958 718.564 729.918 708.377 717.534 708.377C705.149 708.377 695.11 718.564 695.11 731.131C695.11 743.697 705.149 753.884 717.534 753.884Z" fill="#F0A7A0"/>
<path d="M775.554 821.976C775.554 835.708 773.421 849.354 769.235 862.413L767.556 867.652L759.507 904.992L750.882 907.325L744.557 899.157L731.908 889.823L722.708 874.653L714.82 861.316L712.359 857.151L703.734 813.394L670.961 794.724L660.036 792.974L662.336 786.556L672.111 773.137L681.885 771.97L684.76 769.637L687.06 770.803L699.738 775.759L740.843 758.137L746.857 759.135L767.556 776.638C772.848 791.15 775.556 806.502 775.554 821.976Z" fill="#CCCCCC"/>
<path opacity="0.1" d="M769.281 816.894L747.432 831.48L714.82 861.316L712.359 857.151L705.459 822.145H707.184L725.009 788.89L769.281 816.894Z" fill="black"/>
<path d="M725.009 785.389L707.184 818.644L696.835 830.313L687.636 832.647L712.359 860.068L747.432 827.979L769.281 813.393L725.009 785.389Z" fill="#CCCCCC"/>
<path d="M700.092 714.212L697.663 715.161C697.294 714.907 696.978 714.583 696.733 714.205C696.488 713.828 696.318 713.405 696.234 712.962C696.15 712.518 696.152 712.062 696.242 711.619C696.331 711.176 696.506 710.756 696.756 710.381C696.769 710.362 696.782 710.342 696.796 710.323L692.306 710.11C695.188 706.215 698.852 702.985 703.057 700.635C707.261 698.284 711.909 696.866 716.694 696.475C721.478 696.084 726.29 696.728 730.811 698.365C735.332 700.002 739.459 702.594 742.919 705.97C743.123 705.256 745.352 706.646 746.261 708.055C746.567 706.893 748.656 712.512 749.395 716.484C749.738 715.162 751.053 717.297 749.901 719.345C750.631 719.237 750.961 721.133 750.395 722.189C751.194 721.808 751.06 724.071 750.193 725.583C751.333 725.481 750.096 749.304 732.989 747.568C731.799 742.016 732.134 742.361 730.732 735.221C730.079 734.518 729.364 733.878 728.651 733.239L724.791 729.782C720.303 725.762 716.22 720.8 710.241 719.298C706.132 718.265 703.534 718.032 705.773 713.334C703.75 714.19 701.861 715.464 699.819 716.26C699.847 715.604 700.132 714.869 700.092 714.212Z" fill="#2F2E41"/>
<path d="M728.746 737.84C730.968 737.84 732.77 736.011 732.77 733.756C732.77 731.5 730.968 729.672 728.746 729.672C726.523 729.672 724.721 731.5 724.721 733.756C724.721 736.011 726.523 737.84 728.746 737.84Z" fill="#F0A7A0"/>
<path d="M541.054 637.301L539.826 656.015L558.269 657.261L559.497 638.547L541.054 637.301Z" fill="#E6E6E6"/>
<path d="M529.155 647.238L551.55 648.751L550.058 671.476L527.663 669.962L529.155 647.238ZM550.511 649.673L530.063 648.292L528.702 669.04L549.149 670.422L550.511 649.673Z" fill="#CCCCCC"/>
<path d="M645.278 581.808L627.207 585.748L631.09 604.085L649.161 600.145L645.278 581.808Z" fill="#E6E6E6"/>
<path d="M632.594 572.926L637.31 595.192L615.366 599.977L610.651 577.71L632.594 572.926ZM636.15 594.432L631.845 574.102L611.81 578.47L616.115 598.801L636.15 594.432Z" fill="#CCCCCC"/>
<path d="M626.29 669.869L612.8 682.691L625.435 696.379L638.926 683.557L626.29 669.869Z" fill="#E6E6E6"/>
<path d="M639.896 667.951L623.515 683.52L608.171 666.898L624.552 651.329L639.896 667.951ZM623.56 682.12L638.516 667.905L624.507 652.729L609.55 666.944L623.56 682.12Z" fill="#CCCCCC"/>
<path d="M1323.92 534H777.038C775.061 534 773.104 534.395 771.278 535.163C769.451 535.93 767.792 537.055 766.394 538.474C764.996 539.892 763.888 541.576 763.131 543.429C762.375 545.282 761.985 547.268 761.985 549.274V858.469C761.985 860.475 762.375 862.461 763.131 864.314C763.888 866.167 764.996 867.851 766.394 869.269C767.792 870.687 769.451 871.812 771.278 872.58C773.104 873.348 775.061 873.743 777.038 873.743H1323.92C1327.92 873.743 1331.74 872.133 1334.57 869.269C1337.39 866.405 1338.98 862.52 1338.98 858.469V549.274C1338.98 545.223 1337.39 541.338 1334.57 538.474C1331.74 535.609 1327.92 534 1323.92 534Z" fill="#3F3D56"/>
<path d="M1318.8 560.993H782.166V868.158H1318.8V560.993Z" fill="white"/>
<path d="M1050.02 552.616C1053.06 552.616 1055.53 550.116 1055.53 547.031C1055.53 543.947 1053.06 541.446 1050.02 541.446C1046.98 541.446 1044.52 543.947 1044.52 547.031C1044.52 550.116 1046.98 552.616 1050.02 552.616Z" fill="white"/>
<path d="M1165.33 868.158H782.166V560.994L1165.33 868.158Z" fill="#F2F2F2"/>
<path d="M866.133 845.173C894.621 845.173 917.715 821.739 917.715 792.832C917.715 763.925 894.621 740.491 866.133 740.491C837.645 740.491 814.55 763.925 814.55 792.832C814.55 821.739 837.645 845.173 866.133 845.173Z" fill="#05299E"/>
<path d="M877.616 832.171C864.925 832.171 852.52 828.353 841.968 821.199C831.417 814.044 823.193 803.876 818.336 791.979C813.48 780.083 812.209 766.992 814.685 754.362C817.161 741.733 823.272 730.132 832.245 721.026C841.219 711.921 852.651 705.72 865.098 703.208C877.544 700.696 890.446 701.985 902.17 706.913C913.894 711.841 923.915 720.186 930.966 730.893C938.016 741.599 941.779 754.187 941.779 767.064C941.779 775.614 940.12 784.08 936.895 791.979C933.671 799.879 928.944 807.056 922.986 813.102C917.028 819.147 909.955 823.943 902.17 827.215C894.385 830.487 886.042 832.171 877.616 832.171ZM877.616 702.808C865.091 702.808 852.848 706.577 842.434 713.637C832.02 720.698 823.904 730.733 819.111 742.474C814.318 754.216 813.064 767.135 815.507 779.6C817.951 792.064 823.982 803.513 832.838 812.5C841.694 821.486 852.978 827.606 865.261 830.085C877.545 832.565 890.278 831.292 901.849 826.429C913.42 821.565 923.31 813.33 930.268 802.763C937.226 792.196 940.94 779.773 940.94 767.064C940.94 758.626 939.303 750.27 936.12 742.474C932.938 734.679 928.273 727.595 922.393 721.628C916.513 715.662 909.532 710.929 901.849 707.699C894.166 704.47 885.932 702.808 877.616 702.808Z" fill="#3F3D56"/>
<path d="M1194.57 720.574H1144.44V731.203H1194.57V720.574Z" fill="#3F3D56"/>
<path d="M1241.99 662.995H1097.02V667.55H1241.99V662.995Z" fill="#3F3D56"/>
<path d="M1241.99 680.89H1097.02V685.445H1241.99V680.89Z" fill="#3F3D56"/>
<path d="M1241.99 698.786H1097.02V703.341H1241.99V698.786Z" fill="#3F3D56"/>
<path d="M1280.83 579.376H1259.88V600.632H1280.83V579.376Z" fill="#05299E"/>
<path d="M1290.56 610.501H1265.12V584.69H1290.56V610.501ZM1266.22 609.379H1289.45V585.812H1266.22L1266.22 609.379Z" fill="#CCCCCC"/>
<path d="M1354.04 862.573H1301.67V858.744C1301.67 858.645 1301.65 858.546 1301.62 858.454C1301.58 858.362 1301.52 858.278 1301.45 858.207C1301.38 858.137 1301.3 858.081 1301.21 858.043C1301.12 858.005 1301.02 857.985 1300.92 857.985H1282.97C1282.87 857.985 1282.77 858.005 1282.68 858.043C1282.59 858.081 1282.51 858.137 1282.44 858.207C1282.37 858.278 1282.31 858.362 1282.28 858.454C1282.24 858.546 1282.22 858.644 1282.22 858.744V862.573H1271V858.744C1271 858.645 1270.98 858.546 1270.94 858.454C1270.9 858.362 1270.85 858.278 1270.78 858.207C1270.71 858.137 1270.63 858.081 1270.54 858.043C1270.45 858.005 1270.35 857.985 1270.25 857.985H1252.29C1252.2 857.985 1252.1 858.005 1252.01 858.043C1251.92 858.081 1251.83 858.137 1251.76 858.207C1251.7 858.278 1251.64 858.362 1251.6 858.454C1251.56 858.546 1251.55 858.645 1251.55 858.744V862.573H1240.32V858.744C1240.32 858.645 1240.3 858.546 1240.27 858.454C1240.23 858.362 1240.17 858.278 1240.1 858.207C1240.03 858.137 1239.95 858.081 1239.86 858.043C1239.77 858.005 1239.67 857.985 1239.57 857.985H1221.62C1221.52 857.985 1221.42 858.005 1221.33 858.043C1221.24 858.081 1221.16 858.137 1221.09 858.207C1221.02 858.278 1220.97 858.362 1220.93 858.454C1220.89 858.546 1220.87 858.645 1220.87 858.744V862.573H1209.65V858.744C1209.65 858.645 1209.63 858.546 1209.59 858.454C1209.55 858.362 1209.5 858.278 1209.43 858.207C1209.36 858.137 1209.28 858.081 1209.19 858.043C1209.1 858.005 1209 857.985 1208.9 857.985H1190.94C1190.85 857.985 1190.75 858.005 1190.66 858.043C1190.57 858.081 1190.48 858.137 1190.42 858.207C1190.35 858.278 1190.29 858.362 1190.25 858.454C1190.22 858.546 1190.2 858.644 1190.2 858.744V862.573H1178.97V858.744C1178.97 858.645 1178.95 858.546 1178.92 858.454C1178.88 858.362 1178.82 858.278 1178.75 858.207C1178.68 858.137 1178.6 858.081 1178.51 858.043C1178.42 858.005 1178.32 857.985 1178.23 857.985H1160.27C1160.17 857.985 1160.07 858.005 1159.98 858.043C1159.89 858.081 1159.81 858.137 1159.74 858.207C1159.67 858.278 1159.62 858.362 1159.58 858.454C1159.54 858.546 1159.52 858.645 1159.52 858.744V862.573H1148.3V858.744C1148.3 858.645 1148.28 858.546 1148.24 858.454C1148.2 858.362 1148.15 858.278 1148.08 858.207C1148.01 858.137 1147.93 858.081 1147.84 858.043C1147.75 858.005 1147.65 857.985 1147.55 857.985H1129.59C1129.5 857.985 1129.4 858.005 1129.31 858.043C1129.22 858.081 1129.14 858.137 1129.07 858.207C1129 858.278 1128.94 858.362 1128.9 858.454C1128.87 858.546 1128.85 858.645 1128.85 858.744V862.573H1117.62V858.744C1117.62 858.645 1117.6 858.546 1117.57 858.454C1117.53 858.362 1117.47 858.278 1117.4 858.207C1117.34 858.137 1117.25 858.081 1117.16 858.043C1117.07 858.005 1116.97 857.985 1116.88 857.985H976.221C976.123 857.985 976.025 858.005 975.934 858.043C975.844 858.081 975.761 858.137 975.692 858.207C975.622 858.278 975.567 858.362 975.53 858.454C975.492 858.546 975.473 858.645 975.473 858.744V862.573H964.25V858.744C964.25 858.645 964.231 858.546 964.193 858.454C964.156 858.362 964.1 858.278 964.031 858.207C963.962 858.137 963.879 858.081 963.788 858.043C963.698 858.005 963.6 857.985 963.502 857.985H945.546C945.448 857.985 945.35 858.005 945.26 858.043C945.169 858.081 945.086 858.137 945.017 858.207C944.948 858.278 944.892 858.362 944.855 858.454C944.817 858.546 944.798 858.645 944.798 858.744V862.573H933.575V858.744C933.575 858.645 933.556 858.546 933.518 858.454C933.481 858.362 933.426 858.278 933.356 858.207C933.287 858.137 933.204 858.081 933.114 858.043C933.023 858.005 932.926 857.985 932.827 857.985H914.871C914.773 857.985 914.676 858.005 914.585 858.043C914.494 858.081 914.412 858.137 914.342 858.207C914.273 858.278 914.218 858.362 914.18 858.454C914.142 858.546 914.123 858.645 914.123 858.744V862.573H902.901V858.744C902.901 858.645 902.881 858.546 902.844 858.454C902.806 858.362 902.751 858.278 902.681 858.207C902.612 858.137 902.53 858.081 902.439 858.043C902.348 858.005 902.251 857.985 902.152 857.985H884.196C884.098 857.985 884.001 858.005 883.91 858.043C883.819 858.081 883.737 858.137 883.667 858.207C883.598 858.278 883.543 858.362 883.505 858.454C883.468 858.546 883.448 858.645 883.448 858.744V862.573H872.226V858.744C872.226 858.645 872.207 858.546 872.169 858.454C872.131 858.362 872.076 858.278 872.007 858.207C871.937 858.137 871.855 858.081 871.764 858.043C871.673 858.005 871.576 857.985 871.478 857.985H853.522C853.423 857.985 853.326 858.005 853.235 858.043C853.145 858.081 853.062 858.137 852.993 858.207C852.923 858.278 852.868 858.362 852.831 858.454C852.793 858.546 852.774 858.645 852.774 858.744V862.573H841.551V858.744C841.551 858.645 841.532 858.546 841.494 858.454C841.457 858.362 841.401 858.278 841.332 858.207C841.262 858.137 841.18 858.081 841.089 858.043C840.998 858.005 840.901 857.985 840.803 857.985H822.847C822.649 857.985 822.458 858.065 822.318 858.207C822.178 858.35 822.099 858.543 822.099 858.744V862.573H810.876V858.744C810.876 858.645 810.857 858.546 810.819 858.454C810.782 858.362 810.727 858.278 810.657 858.207C810.588 858.137 810.505 858.081 810.414 858.043C810.324 858.005 810.226 857.985 810.128 857.985H792.172C791.974 857.985 791.783 858.065 791.643 858.207C791.503 858.35 791.424 858.543 791.424 858.744V862.573H757.008C752.246 862.573 747.679 864.493 744.312 867.91C740.944 871.326 739.052 875.961 739.052 880.793V889.032C739.053 893.864 740.944 898.498 744.312 901.915C747.679 905.332 752.246 907.252 757.008 907.252H1354.04C1358.81 907.252 1363.37 905.332 1366.74 901.915C1370.11 898.498 1372 893.864 1372 889.032V880.793C1372 878.4 1371.54 876.031 1370.63 873.821C1369.73 871.61 1368.41 869.601 1366.74 867.91C1365.07 866.218 1363.09 864.876 1360.92 863.96C1358.74 863.044 1356.4 862.573 1354.04 862.573Z" fill="#3F3D56"/>
</g>
<defs>
<radialGradient id="paint0_angular_271_524" cx="0" cy="0" r="1" gradientUnits="userSpaceOnUse" gradientTransform="translate(764.634 598) rotate(90) scale(915 844.779)">
<stop offset="0.130208" stop-color="#7182FF"/>
<stop offset="0.494792" stop-color="#B996EE"/>
<stop offset="0.96875" stop-color="#FFA9DD"/>
</radialGradient>
<radialGradient id="paint1_angular_271_524" cx="0" cy="0" r="1" gradientUnits="userSpaceOnUse" gradientTransform="translate(1360 586) rotate(90) scale(350)">
<stop offset="0.0989583" stop-color="#7B90D7"/>
<stop offset="0.677083" stop-color="#6D82C7"/>
</radialGradient>
<clipPath id="clip0_271_524">
<rect width="872" height="379" fill="white" transform="translate(500 534)"/>
</clipPath>
</defs>
</svg>
